<svg id="visual" viewBox="0 0 900 600" width="900" height="600" xmlns="http://www.w3.org/2000/svg" xmlns:xlink="http://www.w3.org/1999/xlink" version="1.1"><rect x="0" y="0" width="900" height="600" fill="#001220"></rect><path d="M0 307L21.5 300.3C43 293.7 86 280.3 128.8 269.8C171.7 259.3 214.3 251.7 257.2 260.7C300 269.7 343 295.3 385.8 313.5C428.7 331.7 471.3 342.3 514.2 338.5C557 334.7 600 316.3 642.8 315.7C685.7 315 728.3 332 771.2 333.2C814 334.3 857 319.7 878.5 312.3L900 305L900 601L878.5 601C857 601 814 601 771.2 601C728.3 601 685.7 601 642.8 601C600 601 557 601 514.2 601C471.3 601 428.7 601 385.8 601C343 601 300 601 257.2 601C214.3 601 171.7 601 128.8 601C86 601 43 601 21.5 601L0 601Z" fill="#fa7268"></path><path d="M0 334L21.5 342.8C43 351.7 86 369.3 128.8 366.3C171.7 363.3 214.3 339.7 257.2 332.7C300 325.7 343 335.3 385.8 340.5C428.7 345.7 471.3 346.3 514.2 350.2C557 354 600 361 642.8 360.8C685.7 360.7 728.3 353.3 771.2 361.2C814 369 857 392 878.5 403.5L900 415L900 601L878.5 601C857 601 814 601 771.2 601C728.3 601 685.7 601 642.8 601C600 601 557 601 514.2 601C471.3 601 428.7 601 385.8 601C343 601 300 601 257.2 601C214.3 601 171.7 601 128.8 601C86 601 43 601 21.5 601L0 601Z" fill="#ef5f67"></path><path d="M0 463L21.5 451C43 439 86 415 128.8 410.7C171.7 406.3 214.3 421.7 257.2 429C300 436.3 343 435.7 385.8 432.3C428.7 429 471.3 423 514.2 424.3C557 425.7 600 434.3 642.8 439.7C685.7 445 728.3 447 771.2 441.8C814 436.7 857 424.3 878.5 418.2L900 412L900 601L878.5 601C857 601 814 601 771.2 601C728.3 601 685.7 601 642.8 601C600 601 557 601 514.2 601C471.3 601 428.7 601 385.8 601C343 601 300 601 257.2 601C214.3 601 171.7 601 128.8 601C86 601 43 601 21.5 601L0 601Z" fill="#e34c67"></path><path d="M0 461L21.5 459.7C43 458.3 86 455.7 128.8 455.8C171.7 456 214.3 459 257.2 458.8C300 458.7 343 455.3 385.8 452.3C428.7 449.3 471.3 446.7 514.2 454.2C557 461.7 600 479.3 642.8 484.3C685.7 489.3 728.3 481.7 771.2 473.3C814 465 857 456 878.5 451.5L900 447L900 601L878.5 601C857 601 814 601 771.2 601C728.3 601 685.7 601 642.8 601C600 601 557 601 514.2 601C471.3 601 428.7 601 385.8 601C343 601 300 601 257.2 601C214.3 601 171.7 601 128.8 601C86 601 43 601 21.5 601L0 601Z" fill="#d53867"></path><path d="M0 496L21.5 496.2C43 496.3 86 496.7 128.8 507.7C171.7 518.7 214.3 540.3 257.2 540.8C300 541.3 343 520.7 385.8 511.7C428.7 502.7 471.3 505.3 514.2 508.8C557 512.3 600 516.7 642.8 521C685.7 525.3 728.3 529.7 771.2 535.2C814 540.7 857 547.3 878.5 550.7L900 554L900 601L878.5 601C857 601 814 601 771.2 601C728.3 601 685.7 601 642.8 601C600 601 557 601 514.2 601C471.3 601 428.7 601 385.8 601C343 601 300 601 257.2 601C214.3 601 171.7 601 128.8 601C86 601 43 601 21.5 601L0 601Z" fill="#c62368"></path></svg>