<svg id="visual" viewBox="0 0 180 1000" width="180" height="1000" xmlns="http://www.w3.org/2000/svg" xmlns:xlink="http://www.w3.org/1999/xlink" version="1.1"><path d="M0 491L15 497.7C30 504.3 60 517.7 90 503.5C120 489.3 150 447.7 165 426.8L180 406L180 1001L165 1001C150 1001 120 1001 90 1001C60 1001 30 1001 15 1001L0 1001Z" fill="#ea7b81"></path><path d="M0 568L15 554.7C30 541.3 60 514.7 90 520C120 525.3 150 562.7 165 581.3L180 600L180 1001L165 1001C150 1001 120 1001 90 1001C60 1001 30 1001 15 1001L0 1001Z" fill="#f2817a"></path><path d="M0 582L15 588.3C30 594.7 60 607.3 90 612.7C120 618 150 616 165 615L180 614L180 1001L165 1001C150 1001 120 1001 90 1001C60 1001 30 1001 15 1001L0 1001Z" fill="#f88973"></path><path d="M0 578L15 593.2C30 608.3 60 638.7 90 652.8C120 667 150 665 165 664L180 663L180 1001L165 1001C150 1001 120 1001 90 1001C60 1001 30 1001 15 1001L0 1001Z" fill="#fc926c"></path><path d="M0 640L15 647.3C30 654.7 60 669.3 90 677.5C120 685.7 150 687.3 165 688.2L180 689L180 1001L165 1001C150 1001 120 1001 90 1001C60 1001 30 1001 15 1001L0 1001Z" fill="#ff9b65"></path><path d="M0 686L15 687.7C30 689.3 60 692.7 90 697.8C120 703 150 710 165 713.5L180 717L180 1001L165 1001C150 1001 120 1001 90 1001C60 1001 30 1001 15 1001L0 1001Z" fill="#ff9b65"></path><path d="M0 708L15 710C30 712 60 716 90 720C120 724 150 728 165 730L180 732L180 1001L165 1001C150 1001 120 1001 90 1001C60 1001 30 1001 15 1001L0 1001Z" fill="#ff9b65"></path><path d="M0 774L15 782.7C30 791.3 60 808.7 90 820.8C120 833 150 840 165 843.5L180 847L180 1001L165 1001C150 1001 120 1001 90 1001C60 1001 30 1001 15 1001L0 1001Z" fill="#fc926c"></path><path d="M0 831L15 839C30 847 60 863 90 865.3C120 867.7 150 856.3 165 850.7L180 845L180 1001L165 1001C150 1001 120 1001 90 1001C60 1001 30 1001 15 1001L0 1001Z" fill="#f88973"></path><path d="M0 927L15 923.5C30 920 60 913 90 904.7C120 896.3 150 886.7 165 881.8L180 877L180 1001L165 1001C150 1001 120 1001 90 1001C60 1001 30 1001 15 1001L0 1001Z" fill="#f2817a"></path><path d="M0 943L15 946.8C30 950.7 60 958.3 90 962.3C120 966.3 150 966.7 165 966.8L180 967L180 1001L165 1001C150 1001 120 1001 90 1001C60 1001 30 1001 15 1001L0 1001Z" fill="#ea7b81"></path></svg>