<svg id="visual" viewBox="0 0 900 600" width="900" height="600" xmlns="http://www.w3.org/2000/svg" xmlns:xlink="http://www.w3.org/1999/xlink" version="1.1"><rect x="0" y="0" width="900" height="600" fill="#001220"></rect><path d="M0 420L21.5 420.3C43 420.7 86 421.3 128.8 413.7C171.7 406 214.3 390 257.2 379.3C300 368.7 343 363.3 385.8 367.5C428.7 371.7 471.3 385.3 514.2 387.5C557 389.7 600 380.3 642.8 376.2C685.7 372 728.3 373 771.2 378.7C814 384.3 857 394.7 878.5 399.8L900 405L900 601L878.5 601C857 601 814 601 771.2 601C728.3 601 685.7 601 642.8 601C600 601 557 601 514.2 601C471.3 601 428.7 601 385.8 601C343 601 300 601 257.2 601C214.3 601 171.7 601 128.8 601C86 601 43 601 21.5 601L0 601Z" fill="#fa7268"></path><path d="M0 406L21.5 411.5C43 417 86 428 128.8 435C171.7 442 214.3 445 257.2 444.2C300 443.3 343 438.7 385.8 431.5C428.7 424.3 471.3 414.7 514.2 412.8C557 411 600 417 642.8 426.8C685.7 436.7 728.3 450.3 771.2 458.8C814 467.3 857 470.7 878.5 472.3L900 474L900 601L878.5 601C857 601 814 601 771.2 601C728.3 601 685.7 601 642.8 601C600 601 557 601 514.2 601C471.3 601 428.7 601 385.8 601C343 601 300 601 257.2 601C214.3 601 171.7 601 128.8 601C86 601 43 601 21.5 601L0 601Z" fill="#ef5f67"></path><path d="M0 462L21.5 468.2C43 474.3 86 486.7 128.8 488.7C171.7 490.7 214.3 482.3 257.2 478.7C300 475 343 476 385.8 470.7C428.7 465.3 471.3 453.7 514.2 458.8C557 464 600 486 642.8 488.7C685.7 491.3 728.3 474.7 771.2 464.7C814 454.7 857 451.3 878.5 449.7L900 448L900 601L878.5 601C857 601 814 601 771.2 601C728.3 601 685.7 601 642.8 601C600 601 557 601 514.2 601C471.3 601 428.7 601 385.8 601C343 601 300 601 257.2 601C214.3 601 171.7 601 128.8 601C86 601 43 601 21.5 601L0 601Z" fill="#e34c67"></path><path d="M0 490L21.5 489.8C43 489.7 86 489.3 128.8 495.2C171.7 501 214.3 513 257.2 518C300 523 343 521 385.8 519.7C428.7 518.3 471.3 517.7 514.2 517.2C557 516.7 600 516.3 642.8 510.8C685.7 505.3 728.3 494.7 771.2 499C814 503.3 857 522.7 878.5 532.3L900 542L900 601L878.5 601C857 601 814 601 771.2 601C728.3 601 685.7 601 642.8 601C600 601 557 601 514.2 601C471.3 601 428.7 601 385.8 601C343 601 300 601 257.2 601C214.3 601 171.7 601 128.8 601C86 601 43 601 21.5 601L0 601Z" fill="#d53867"></path><path d="M0 559L21.5 560.5C43 562 86 565 128.8 565.5C171.7 566 214.3 564 257.2 560.2C300 556.3 343 550.7 385.8 548.2C428.7 545.7 471.3 546.3 514.2 550.3C557 554.3 600 561.7 642.8 562.5C685.7 563.3 728.3 557.7 771.2 554C814 550.3 857 548.7 878.5 547.8L900 547L900 601L878.5 601C857 601 814 601 771.2 601C728.3 601 685.7 601 642.8 601C600 601 557 601 514.2 601C471.3 601 428.7 601 385.8 601C343 601 300 601 257.2 601C214.3 601 171.7 601 128.8 601C86 601 43 601 21.5 601L0 601Z" fill="#c62368"></path></svg>