<svg id="visual" viewBox="0 0 960 540" width="960" height="540" xmlns="http://www.w3.org/2000/svg" xmlns:xlink="http://www.w3.org/1999/xlink" version="1.1"><rect x="0" y="0" width="960" height="540" fill="#845EC2"></rect><path d="M0 364L22.8 364C45.7 364 91.3 364 137 360.2C182.7 356.3 228.3 348.7 274 349.8C319.7 351 365.3 361 411.2 367C457 373 503 375 548.8 373.7C594.7 372.3 640.3 367.7 686 371.5C731.7 375.3 777.3 387.7 823 382.7C868.7 377.7 914.3 355.3 937.2 344.2L960 333L960 541L937.2 541C914.3 541 868.7 541 823 541C777.3 541 731.7 541 686 541C640.3 541 594.7 541 548.8 541C503 541 457 541 411.2 541C365.3 541 319.7 541 274 541C228.3 541 182.7 541 137 541C91.3 541 45.7 541 22.8 541L0 541Z" fill="#d65db1"></path><path d="M0 412L22.8 413C45.7 414 91.3 416 137 416.7C182.7 417.3 228.3 416.7 274 416.8C319.7 417 365.3 418 411.2 420.2C457 422.3 503 425.7 548.8 418.5C594.7 411.3 640.3 393.7 686 386C731.7 378.3 777.3 380.7 823 378.2C868.7 375.7 914.3 368.3 937.2 364.7L960 361L960 541L937.2 541C914.3 541 868.7 541 823 541C777.3 541 731.7 541 686 541C640.3 541 594.7 541 548.8 541C503 541 457 541 411.2 541C365.3 541 319.7 541 274 541C228.3 541 182.7 541 137 541C91.3 541 45.7 541 22.8 541L0 541Z" fill="#e35fa9"></path><path d="M0 439L22.8 440.3C45.7 441.7 91.3 444.3 137 437.8C182.7 431.3 228.3 415.7 274 412.5C319.7 409.3 365.3 418.7 411.2 418.2C457 417.7 503 407.3 548.8 403.5C594.7 399.7 640.3 402.3 686 402.8C731.7 403.3 777.3 401.7 823 404.5C868.7 407.3 914.3 414.7 937.2 418.3L960 422L960 541L937.2 541C914.3 541 868.7 541 823 541C777.3 541 731.7 541 686 541C640.3 541 594.7 541 548.8 541C503 541 457 541 411.2 541C365.3 541 319.7 541 274 541C228.3 541 182.7 541 137 541C91.3 541 45.7 541 22.8 541L0 541Z" fill="#ee63a1"></path><path d="M0 488L22.8 483.7C45.7 479.3 91.3 470.7 137 469.2C182.7 467.7 228.3 473.3 274 471.7C319.7 470 365.3 461 411.2 458.5C457 456 503 460 548.8 458.5C594.7 457 640.3 450 686 447.2C731.7 444.3 777.3 445.7 823 447.3C868.7 449 914.3 451 937.2 452L960 453L960 541L937.2 541C914.3 541 868.7 541 823 541C777.3 541 731.7 541 686 541C640.3 541 594.7 541 548.8 541C503 541 457 541 411.2 541C365.3 541 319.7 541 274 541C228.3 541 182.7 541 137 541C91.3 541 45.7 541 22.8 541L0 541Z" fill="#f76899"></path><path d="M0 495L22.8 498.3C45.7 501.7 91.3 508.3 137 509.2C182.7 510 228.3 505 274 501.2C319.7 497.3 365.3 494.7 411.2 493.8C457 493 503 494 548.8 491.3C594.7 488.7 640.3 482.3 686 480.8C731.7 479.3 777.3 482.7 823 488.3C868.7 494 914.3 502 937.2 506L960 510L960 541L937.2 541C914.3 541 868.7 541 823 541C777.3 541 731.7 541 686 541C640.3 541 594.7 541 548.8 541C503 541 457 541 411.2 541C365.3 541 319.7 541 274 541C228.3 541 182.7 541 137 541C91.3 541 45.7 541 22.8 541L0 541Z" fill="#ff6f91"></path></svg>